<svg xmlns="http://www.w3.org/2000/svg" xmlns:xlink="http://www.w3.org/1999/xlink" width="283.2" height="55.776" fill="#fff" viewBox="0 -1749.5 15646.6 3081.7"><defs><path id="a" d="M66 637H49q-5 0-10 1t-7 3-2 6 3 17 9 18q2 1 14 1 48-3 109-3 123 0 141 3h10q6-6 6-9t-2-18q-4-13-10-19h-12q-56 0-56-13 0-5 50-147t51-144l3 3q4 4 12 13t21 24 32 37 43 51q92 107 107 126t16 31q0 16-32 19-17 0-17 10 0 2 2 14 3 15 5 18t14 4q2 0 29-1t79-2q27 0 56 1t33 1q17 0 17-9 0-4-3-16t-5-14q-2-6-21-6-72-5-117-50-9-9-140-163L348 273l-26-104Q295 62 295 57q0-11 68-11 16 0 21-1t6-10q0-2-2-12-4-17-6-19t-16-3h-42q-37 0-92 1h-94q-32 0-36-1-18 0-18 8 0 5 3 15l2 6q1 3 1 5t1 4 2 3 3 2 5 1 6 0 9 1 13 0q39 1 51 4t18 13q3 5 29 108l25 103-123 349-2 2-2 2q-1 1-3 2t-4 2-5 2-8 1-9 1-13 1-17 1Z"/><path id="b" d="M121 647q0 10 4 23t12 13q1 0 72 5t73 6q12 0 12-8 0-7-50-209-50-198-50-205 19 10 29 19 24 18 69 63t70 61q40 27 76 27 30 0 47-19t18-54q0-25-7-42t-19-25-21-11-18-3q-20 0-32 11t-12 29q0 25 16 41t32 21l16 3q-12 12-24 12h-4q-32-3-63-25t-73-64-66-61q2-1 15-3t24-6 26-8 27-14 22-18 17-26 6-33q0-17-5-41t-6-40q0-40 27-40 48 0 78 119 2 8 20 8h4q16 0 16-9 0-5-3-14Q455-11 378-11q-45 0-73 26t-28 75q0 18 3 31t3 24q0 22-14 38t-35 23-34 11-18 3h-2q-12-42-21-81t-14-58-9-37-7-24-7-13-11-9q-13-9-28-9-17 0-26 10t-9 17q0 10 37 160t73 295l37 145q1 13-7 16t-39 5h-18q-3 0-7 3t-3 7Z"/><path id="c" d="M56 347q0 13 14 20h637q15-8 15-20 0-11-14-19l-318-1H72q-16 5-16 20Zm0-194q0 15 16 20h636q14-10 14-20 0-13-15-20H70q-14 7-14 20Z"/><path id="d" d="M184-11q-68 0-110 45T31 147q0 100 73 186t170 97q1 1 140 1h138q1-1 3-2t4-2 3-2 3-3 2-2 2-4 1-4 1-5 1-6q0-44-65-44h-17q-10 0-14 1h-60l5-10q18-38 18-85 0-110-80-192T184-11Zm177 289q0 80-85 80-124 0-161-174-1-4-1-6-8-37-8-61 0-50 25-70t57-21q54 0 99 47 29 30 47 80t22 80 5 45Z"/><path id="e" d="M118-250V750h137v-40h-97v-920h97v-40H118Z"/><path id="f" d="M58 8q0 15 6 27 0 1 265 299t267 301l-10 2H476q-34 0-56-2t-55-11-54-26-45-50-38-79l-2-6q-1-3-2-5t-1-5-1-3l-1-2q-3-5-19-5-17 0-20 10l32 108q14 45 27 90 8 28 12 30 3 2 234 2h231q5-5 5-8 0-2-6-26Q189 54 188 52l-3-3h89q95 1 103 2 75 9 123 49t79 147q8 25 11 30t13 5h4q21 0 21-11Q547 5 541 2q-3-2-241-2H124Q58 0 58 8Z"/><path id="g" d="M22 710v40h137V-250H22v40h97v920H22Z"/><path id="h" d="M269-1249v2999h308v-73H342v-2853h235v-73H269Z"/><path id="i" d="M231 637q-27 0-32 1t-5 11q0 27 11 33 1 1 130 1 259 0 273-2 63-10 105-45t43-92q0-64-58-115t-133-69l-10-3q64-9 105-46t42-92q0-73-72-141T453 1q-7-1-211-1Q42 0 39 2q-4 3-4 8 0 7 2 14 5 19 10 21 4 1 15 1h6q27 0 60 3 14 3 19 12 3 4 72 278t69 289q0 7-57 9Zm418-93q0 30-15 56t-49 34q-7 2-92 3h-42q-22 0-35-1h-13q-15-1-19-10-2-4-32-120 0-3-1-6l-31-126h81q81 0 93 2 60 10 107 58t48 110Zm-54-315q0 44-23 73t-60 34q-6 1-83 1-118 0-119-1 0-2-17-73t-35-141l-18-70q0-4 12-4t81-2q89 0 96 1 62 7 114 58t52 124Z"/><path id="j" d="M56 237v13l14 20h299v150l1 150q10 13 19 13 13 0 20-15V270h298q15-8 15-20t-15-20H409V-68q-8-14-18-14h-4q-12 0-18 14v298H70q-14 7-14 20Z"/><path id="k" d="M60 948q3 2 605 2h602l58-135q59-138 63-146h-40l-7 14q-21 41-56 78-50 48-111 77t-141 43-151 17-183 4H251l8-11q463-633 465-639 1-2 0-6-3-3-264-302L196-356q0-1 211-1h141q89 0 128-1 136 0 220 5t167 21 141 49 103 87q21 26 41 72h40q0-1-7-21t-25-65-31-84l-58-155-601-1q-602 0-605 2-6 2-6 9 0 2 2 6l533 610q0 1-33 45T452 366 322 544L56 909l-1 15q0 21 5 24Z"/><path id="l" d="M297 596q0 31 21 48t43 17q17 0 28-10t14-28q0-28-19-47t-44-19q-18 0-30 10t-13 29Zm-9-220q0 29-26 29-22 0-42-12t-35-31-24-37-17-32l-7-14q-2-1-16-1h-14q-6 6-6 8t4 13q21 49 59 92t88 50h8q7 0 12 1 24-1 44-10 25-14 38-31t13-53v-16l-49-199Q267-67 264-75q-18-50-70-89T75-204q-50 0-68 21t-19 46q0 27 19 46t46 20q17 0 29-10t13-31q0-36-32-55 6-1 14-1 34 0 62 28t43 66l11 42q11 43 26 104t32 125 27 111 11 57q0 7-1 11Z"/><path id="m" d="m213 578-13-5q-14-5-40-10t-58-7H83v46h19q47 2 87 15t56 24 28 22q2 3 12 3 9 0 17-6V361l1-300q7-7 12-9t24-4 62-2h26V0h-11q-21 3-159 3-136 0-157-3H88v46h64q16 0 25 1t16 3 8 2 6 5 6 4v517Z"/><path id="n" d="M21 287q1 6 3 16t12 38 20 47 33 37 46 17q36 0 60-18t30-34 6-21q0-2 1-2l11 11q61 64 139 64 54 0 87-27t34-79-38-157-38-127q0-26 17-26 6 0 9 1 29 5 52 38t35 80q2 8 20 8 20 0 20-8 0-1-4-15-8-29-22-57t-46-56-69-27q-47 0-68 27t-21 56q0 19 36 120t37 152q0 59-44 59h-5q-86 0-145-101l-7-12-33-134Q156 26 151 16q-13-27-43-27-13 0-21 6T76 7t-2 10q0 13 38 163t40 163q1 5 1 23 0 39-24 39-38 0-63-100-6-20-6-21-2-6-19-6H27q-6 6-6 9Z"/><path id="o" d="M42 0h-2Q26 0 26 11q0 4 3 16 4 14 7 16t19 3q86 3 135 52 10 10 116 126t105 118Q302 620 297 625q-9 11-63 12h-28q-6 6-6 8t2 19q4 13 10 19h14q34-2 121-2h61q28 0 45 1t20 0q17 0 17-11 0-1-2-13-4-15-7-18t-16-3q-31-3-54-17l77-194 53 59q105 113 105 125 0 18-24 25-5 0-13 2-15 0-15 11 0 2 2 16 4 13 10 19h37q24 0 54-2t41-1q90 0 99 3h8q7-7 7-11-2-25-12-35h-16q-34-1-61-9t-41-17-24-18l-11-9q0 1-95-104l-87-96q0-1 31-80t65-162 37-86q10-9 61-10 35 0 35-9 0-2-2-14-4-16-7-19t-14-3h-33q-30 0-89 1h-93q-32 0-35-1-17 0-17 9 0 1 2 15 2 10 4 14t5 5 9 2 16 1 26 7q17 8 17 10-1 0-47 117l-47 118Q241 95 236 84q-4-8-4-12 0-19 29-25h6q5 0 6-1h4q1 0 3-1t3-3 1-7q0-9-2-16-3-13-6-15t-15-3h-18q-15 0-42 1t-59 0Q64 2 42 0Z"/><path id="p" d="M210 282q0 2 15 99t16 99q0 4 4 4 4 2 6 2 7 0 9-9t12-71q3-16 4-26 14-94 14-98l98 17q96 15 99 15h1q9 0 9-12 0-5-63-36l-30-15-89-45 46-88q11-20 22-43t18-35l6-12q0-12-12-12h-3l-2 1-140 142L110 17l-2-1h-3q-12 0-12 12l6 12q6 12 17 35t23 43l46 88-89 45Q6 296 4 300q-1 1-1 2 0 12 9 12h1q3 0 99-15l98-17Z"/><path id="q" d="M285 628q0 7-57 9-23 0-30 1t-7 9q0 2 2 14 6 20 10 21 2 1 11 1h5q41-2 136-2h63q29 0 45 1t20 0q17 0 17-8 0-5-3-14-1-2-1-6t-1-6-2-4-3-3-4-2-7-1-9-1-14 0q-40-1-51-3t-18-11l-81-318q1 0 184 144t188 148q14 14 14 23 0 15-25 17-16 0-16 11 0 2 3 14t5 15q3 5 17 5 4 0 35-1t80-1q23 0 48 1t30 1q20 0 20-10 0-22-8-30-3-5-19-5-75-5-136-51-16-10-70-52t-100-79l-47-37 9-22q9-22 28-67t35-85q75-177 80-183 2-2 5-4 14-10 51-11h21q6-8 6-9t-3-18q-4-13-10-19h-11q-40 3-95 3-122 0-137-3h-10q-6 6-6 9t2 18q4 13 6 16t11 3h3q50 0 50 25 0 4-27 70t-32 75l-58 138-68-53-68-53-23-93q-23-92-23-97 0-7 8-9t50-3h31q6-9 6-11 0-16-7-30-5-5-16-5-3 0-37 1T180 2H85Q52 2 49 1 31 1 31 11q0 2 3 14 4 16 8 18t23 3q27 0 60 3 14 3 19 12 3 4 72 278t69 289Z"/><path id="r" d="M5 1677v73h308v-2999H5v73h235v2853H5Z"/></defs><use xlink:href="#a" transform="scale(1 -1)"/><use xlink:href="#b" transform="matrix(.707 0 0 -.707 614 150)"/><use xlink:href="#c" transform="matrix(1 0 0 -1 1310.2 0)"/><use xlink:href="#d" transform="matrix(1 0 0 -1 2366 0)"/><use xlink:href="#e" transform="matrix(1 0 0 -1 2937 0)"/><use xlink:href="#f" transform="matrix(1 0 0 -1 3215 0)"/><use xlink:href="#b" transform="matrix(.707 0 0 -.707 3931 150)"/><use xlink:href="#g" transform="matrix(1 0 0 -1 4349.4 0)"/><use xlink:href="#c" transform="matrix(1 0 0 -1 4905.1 0)"/><use xlink:href="#d" transform="matrix(1 0 0 -1 5960.9 0)"/><use xlink:href="#h" transform="matrix(1 0 0 -1 6698.6 .5)"/><use xlink:href="#i" transform="matrix(1 0 0 -1 7281.6 0)"/><use xlink:href="#b" transform="matrix(.707 0 0 -.707 8073.6 150)"/><use xlink:href="#j" transform="matrix(1 0 0 -1 8714.2 0)"/><use xlink:href="#k" transform="matrix(1 0 0 -1 9714.4 0)"/><use xlink:href="#l" transform="matrix(.707 0 0 -.707 9838.9 1087.9)"/><use xlink:href="#c" transform="matrix(.707 0 0 -.707 10130.184 1087.9)"/><use xlink:href="#m" transform="matrix(.707 0 0 -.707 10680.23 1087.9)"/><use xlink:href="#n" transform="matrix(.707 0 0 -.707 10224.3 -1150)"/><use xlink:href="#o" transform="matrix(1 0 0 -1 11325.1 0)"/><use xlink:href="#l" transform="matrix(.707 0 0 -.707 12186.1 150)"/><use xlink:href="#p" transform="matrix(1 0 0 -1 12749.7 0)"/><use xlink:href="#q" transform="matrix(1 0 0 -1 13471.9 0)"/><use xlink:href="#b" transform="matrix(.707 0 0 -.707 14353.9 150)"/><use xlink:href="#l" transform="matrix(.707 0 0 -.707 14722.247 150)"/><use xlink:href="#r" transform="matrix(1 0 0 -1 15063.6 .5)"/></svg>